<svg xmlns="http://www.w3.org/2000/svg" viewBox="0 0 1080 540" role="img" aria-labelledby="title desc">
  <title id="title">REDE Intelligence</title>
  <desc id="desc">Marca REDE Intelligence em azul profundo e dourado.</desc>
  <defs>
    <linearGradient id="redeBlue" x1="0" x2="1">
      <stop offset="0" stop-color="#0b3471"/>
      <stop offset="1" stop-color="#082b61"/>
    </linearGradient>
  </defs>

  <!-- Monograma R inspirado na marca oficial fornecida -->
  <g transform="translate(38 34)">
    <path fill="url(#redeBlue)" d="M40 64h154c112 0 184 63 184 154 0 88-69 151-176 151h-76V226h70c53 0 88-29 88-73 0-43-35-72-88-72H126v288H40V64Z"/>
    <rect x="40" y="351" width="112" height="14" fill="#c9921d"/>
    <rect x="40" y="378" width="112" height="14" fill="#c9921d"/>
    <rect x="40" y="405" width="112" height="14" fill="#c9921d"/>
    <rect x="40" y="435" width="74" height="80" fill="url(#redeBlue)"/>
    <path d="M174 351h88l178 164h-94L174 351Z" fill="url(#redeBlue)"/>
  </g>

  <!-- Nome -->
  <text x="430" y="300" fill="url(#redeBlue)" font-family="Georgia, 'Times New Roman', serif" font-size="170" font-weight="700" letter-spacing="9">EDE</text>
  <text x="428" y="398" fill="#c9921d" font-family="Georgia, 'Times New Roman', serif" font-size="61" font-weight="600" letter-spacing="5">INTELLIGENCE</text>

  <!-- Losangos -->
  <g transform="translate(1008 353) rotate(45)">
    <rect x="0" y="0" width="22" height="22" fill="#c9921d"/>
    <rect x="30" y="0" width="22" height="22" fill="none" stroke="#0b3471" stroke-width="6"/>
    <rect x="0" y="30" width="22" height="22" fill="none" stroke="#0b3471" stroke-width="6"/>
    <rect x="30" y="30" width="22" height="22" fill="#c9921d"/>
  </g>
</svg>