ISO-10303-21;
HEADER;
FILE_DESCRIPTION(('ViewDefinition [CoordinationView]'),'2;1');
FILE_NAME('parede-minima.ifc','2026-08-20T12:00:00',('REDE'),('REDE'),'Codex','REDE Intelligence','');
FILE_SCHEMA(('IFC4'));
ENDSEC;
DATA;
#1=IFCPROJECT('0YvctVUKr0JfK8ziX5PAZz',$,'Projeto de teste',$,$,$,$,(#20),#10);
#10=IFCUNITASSIGNMENT((#11));
#11=IFCSIUNIT(*,.LENGTHUNIT.,$,.METRE.);
#20=IFCGEOMETRICREPRESENTATIONCONTEXT($,'Model',3,1.E-05,#30,$);
#30=IFCAXIS2PLACEMENT3D(#31,$,$);
#31=IFCCARTESIANPOINT((0.,0.,0.));
#100=IFCWALL('2B7bF7cQf8UQfJgn9I3JrL',$,'Parede de teste',$,$,#101,#110,$,$);
#101=IFCLOCALPLACEMENT($,#30);
#110=IFCPRODUCTDEFINITIONSHAPE($,$,(#111));
#111=IFCSHAPEREPRESENTATION(#20,'Body','SweptSolid',(#112));
#112=IFCEXTRUDEDAREASOLID(#113,#30,#114,3.);
#113=IFCRECTANGLEPROFILEDEF(.AREA.,$,#115,4.,0.2);
#115=IFCAXIS2PLACEMENT2D(#116,$);
#116=IFCCARTESIANPOINT((0.,0.));
#114=IFCDIRECTION((0.,0.,1.));
#200=IFCSITE('1SITE00000000000000000',$,'Terreno',$,$,#201,$,$,.ELEMENT.,$,$,$,$,$);
#201=IFCLOCALPLACEMENT($,#30);
#210=IFCBUILDING('1BUILDING000000000000',$,'Torre A',$,$,#211,$,$,.ELEMENT.,$,$,$);
#211=IFCLOCALPLACEMENT(#201,#30);
#220=IFCBUILDINGSTOREY('1STOREY00000000000000',$,'Pavimento Térreo',$,$,#221,$,$,.ELEMENT.,0.);
#221=IFCLOCALPLACEMENT(#211,#30);
#300=IFCRELAGGREGATES('1RELPROJECT0000000000',$,$,$,#1,(#200));
#301=IFCRELAGGREGATES('1RELSITE0000000000000',$,$,$,#200,(#210));
#302=IFCRELAGGREGATES('1RELBUILDING000000000',$,$,$,#210,(#220));
#303=IFCRELCONTAINEDINSPATIALSTRUCTURE('1RELCONTAIN0000000000',$,$,$,(#100),#220);
#400=IFCPROPERTYSET('1PSET0000000000000000',$,'Pset_WallCommon',$,(#401));
#401=IFCPROPERTYSINGLEVALUE('IsExternal',$,IFCBOOLEAN(.T.),$);
#402=IFCRELDEFINESBYPROPERTIES('1RELPSET0000000000000',$,$,$,(#100),#400);
ENDSEC;
END-ISO-10303-21;
